<svg width="21" height="22" viewBox="0 0 21 22" fill="none" xmlns="http://www.w3.org/2000/svg">
<path fill-rule="evenodd" clip-rule="evenodd" d="M10.5 11.0023C8.1837 11.0023 6.3 9.11898 6.3 6.80318C6.3 4.48738 8.1837 2.60408 10.5 2.60408C12.8163 2.60408 14.7 4.48738 14.7 6.80318C14.7 9.11898 12.8163 11.0023 10.5 11.0023ZM14.4459 11.7087C15.1811 11.1198 15.7744 10.3733 16.1818 9.5241C16.5893 8.67495 16.8006 7.745 16.8 6.80318C16.8008 5.73823 16.5314 4.69054 16.0172 3.75791C15.503 2.82529 14.7606 2.03814 13.8595 1.47025C12.9584 0.902354 11.9281 0.572205 10.8647 0.510561C9.8013 0.448917 8.73963 0.657878 7.77893 1.11785C6.81824 1.57781 5.98988 2.27381 5.37128 3.14076C4.75269 4.00772 4.36403 5.01728 4.24169 6.07518C4.11934 7.13308 4.26728 8.20469 4.67168 9.1899C5.07608 10.1751 5.72374 11.0417 6.5541 11.7087C2.71215 13.1522 0 16.7183 0 21.5H2.1C2.1 16.2511 5.86845 13.1018 10.5 13.1018C15.1315 13.1018 18.9 16.2511 18.9 21.5H21C21 16.7183 18.2878 13.1522 14.4459 11.7087Z" fill="black"/>
</svg>
